<svg width="26" height="27" viewBox="0 0 26 27" fill="none" xmlns="http://www.w3.org/2000/svg">
<path d="M25.4354 3.64927C25.4365 4.9106 24.6812 6.04828 23.522 6.53147C22.3629 7.01466 21.0282 6.74812 20.1409 5.85622C19.2536 4.96433 18.9884 3.62286 19.4691 2.45774C19.9498 1.29263 21.0817 0.533506 22.3366 0.534578C24.0474 0.536042 25.4339 1.92968 25.4354 3.64927" fill="#27A84A"/>
<path d="M21.7481 9.3162C20.819 9.26314 19.9005 9.29763 18.9582 9.28967C18.7539 9.29378 18.5496 9.27778 18.3484 9.24192C17.3803 9.05745 16.6923 8.18872 16.7304 7.19906C16.7304 6.34743 16.7304 5.4958 16.7304 4.64416C16.7304 2.93824 15.8066 1.38355 14.2202 0.839673C13.2404 0.568434 12.2065 0.563855 11.2244 0.826408C9.69635 1.44468 8.69193 2.9302 8.6825 4.5858C8.6825 5.43743 8.6825 6.28906 8.6825 7.14069C8.71153 10.2687 10.0023 12.7121 12.5626 14.5109C12.9355 14.8079 13.2551 15.1668 13.5075 15.5721C14.2725 16.6377 14.6928 17.9141 14.7112 19.228C14.7112 20.1991 14.727 21.1727 14.7112 22.1464C14.7032 23.2556 13.8021 24.1482 12.6985 24.1402C11.595 24.1321 10.7069 23.2264 10.7149 22.1172C10.7149 21.2338 10.7149 20.3529 10.7149 19.4642C10.7298 18.3808 10.311 17.337 9.5525 16.5671C8.79404 15.7973 7.75962 15.3661 6.68174 15.3705C5.82125 15.3705 4.95813 15.3705 4.095 15.3705C3.02907 15.4243 2.10786 14.6297 1.99888 13.5626C1.8899 12.4954 2.6313 11.5294 3.68587 11.3644C4.25939 11.322 4.8348 11.3113 5.40948 11.3325C5.67344 11.3325 5.96642 11.3325 6.24357 11.3325H6.69493V9.30559H6.24357C5.39893 9.30559 4.55428 9.27376 3.71227 9.32151C1.89312 9.45128 0.388427 10.7949 0.0459682 12.5954C0.0106097 12.9675 -0.0043702 13.3412 0.00109629 13.715C0.184475 15.7801 1.89773 17.3678 3.96038 17.3842C4.86838 17.3842 5.77638 17.3842 6.68438 17.3842C7.7484 17.3845 8.62396 18.226 8.67194 19.2944C8.70097 20.0452 8.67194 20.7987 8.67194 21.5495C8.65954 21.9223 8.67365 22.2956 8.71417 22.6664C9.00267 24.6836 10.7405 26.1691 12.7677 26.1314C14.7949 26.0936 16.4769 24.5444 16.6908 22.5178C16.7674 21.7219 16.7093 20.926 16.7225 20.146C16.7494 19.4858 16.7194 18.8245 16.6327 18.1695C16.3078 15.8697 15.0698 13.8004 13.2014 12.4336C12.9065 12.2236 12.6332 11.9845 12.3858 11.7199C11.4076 10.647 10.8212 9.27178 10.7228 7.81988C10.6516 6.70559 10.6753 5.586 10.7228 4.46906C10.7567 3.87675 11.051 3.33029 11.5259 2.97801C12.0009 2.62574 12.6072 2.50421 13.1802 2.64641C14.1147 2.8681 14.7613 3.72501 14.7217 4.68926C14.7217 5.55416 14.7217 6.42171 14.7217 7.28661C14.7213 9.48453 16.471 11.2786 18.6573 11.3219C19.5811 11.3405 20.5049 11.3219 21.4261 11.3219C22.5233 11.3304 23.4136 12.217 23.4322 13.3197C23.444 14.4153 22.5767 15.3167 21.4868 15.3413C20.6791 15.3625 19.8688 15.3546 19.0585 15.3413H18.7338V17.3762H18.9239C19.7157 17.3762 20.5076 17.3762 21.2994 17.3762C21.571 17.3818 21.8424 17.3605 22.1098 17.3125C24.0955 16.9569 25.5109 15.1764 25.418 13.1512C25.3252 11.1261 23.7527 9.48408 21.7429 9.31355" fill="#FF3333"/>
</svg>
