<svg width="23" height="23" viewBox="0 0 23 23" fill="none" xmlns="http://www.w3.org/2000/svg">
<path d="M11.4078 19.9218C10.7171 20.68 10.0502 21.4085 9.38339 22.1311C9.34767 22.1667 9.24049 22.1785 9.19286 22.1489C8.70463 21.8824 8.37716 21.4796 8.25808 20.9347C8.18663 20.603 8.15686 20.2654 8.10923 19.9218H11.4078Z" fill="#7E3AF2"/>
<path d="M3.73898 9.21869C4.04859 9.21869 4.28079 9.15946 4.41774 9.03508C4.55468 8.91069 4.62613 8.76261 4.62613 8.579C4.62613 8.39538 4.57849 8.26507 4.47728 8.17623C4.37606 8.08146 4.25102 8.03407 4.09622 8.03407C3.82233 8.03407 3.60204 8.12292 3.42937 8.28877C3.26266 8.45461 3.14358 8.69746 3.08404 9.00546C3.16144 9.05877 3.2567 9.10615 3.35792 9.14761C3.47105 9.18908 3.59608 9.21277 3.73898 9.21277V9.21869Z" fill="#7E3AF2"/>
<path d="M7.92466 10.3678C7.73413 10.3915 7.50192 10.4034 7.2459 10.4034H5.22154V9.57416C5.22154 9.57416 5.1739 9.62746 5.14413 9.65116C4.85239 9.92954 4.41774 10.0717 3.85807 10.0717C3.6854 10.0717 3.52464 10.0539 3.37579 10.0125C3.25671 9.98285 3.14954 9.94139 3.04832 9.894C3.09 10.1902 3.20312 10.4745 3.3877 10.7351C3.59013 11.0253 3.9057 11.2622 4.32843 11.4459C4.75712 11.6295 5.32871 11.7183 6.02533 11.7183C6.88271 11.7183 7.51383 11.5999 7.9068 11.3748C8.29381 11.1497 8.49029 10.8832 8.49029 10.5692C8.49029 10.4389 8.46052 10.3382 8.40693 10.2553C8.26999 10.3027 8.10328 10.3382 7.92466 10.3619V10.3678Z" fill="#7E3AF2"/>
<path d="M12.6283 17.3986L10.6873 2.00445C10.473 0.434832 8.86539 0.499986 8.86539 0.499986H2.37552C0.750069 0.511832 0.5 2.15845 0.5 2.15845V16.4035C0.779839 18.216 2.41719 18.0679 2.41719 18.0679H12.152C12.67 17.9494 12.6283 17.3986 12.6283 17.3986ZM9.59178 9.30762C9.47866 9.49716 9.34171 9.66893 9.18691 9.81108C9.28813 9.92362 9.37148 10.0539 9.43698 10.1902C9.50843 10.3442 9.5382 10.5219 9.5382 10.7114C9.5382 10.972 9.47866 11.2208 9.35362 11.4577C9.22859 11.6946 9.02615 11.9138 8.75227 12.1033C8.47838 12.2929 8.11519 12.4409 7.66268 12.5476C7.21613 12.6542 6.6505 12.7075 5.99556 12.7075C5.11436 12.7075 4.37011 12.5712 3.78066 12.3106C3.19122 12.0441 2.74466 11.6769 2.45887 11.2089C2.17308 10.741 2.02423 10.202 2.02423 9.60378C2.02423 9.08847 2.11354 8.64424 2.29811 8.28885C2.47673 7.92754 2.73276 7.64916 3.04832 7.45962C3.36388 7.27008 3.72708 7.17531 4.126 7.17531C4.57255 7.17531 4.93574 7.30562 5.19772 7.55439C5.4597 7.80908 5.59664 8.1467 5.59664 8.56724C5.59664 8.92854 5.49542 9.24247 5.28703 9.49716H7.12682C6.9482 9.3787 6.8053 9.24247 6.69813 9.08847C6.56119 8.89301 6.49569 8.66201 6.49569 8.39547C6.49569 8.00454 6.64454 7.69654 6.94225 7.48331C7.23399 7.276 7.61505 7.16939 8.07351 7.16939C8.46647 7.16939 8.78799 7.23454 9.03806 7.37077C9.28813 7.50108 9.47866 7.67877 9.59774 7.892C9.71682 8.10523 9.78231 8.33624 9.78231 8.58501C9.78231 8.84562 9.72277 9.08255 9.59774 9.28985L9.59178 9.30762Z" fill="#7E3AF2"/>
<path d="M8.05565 8.03407C7.86512 8.03407 7.71627 8.08146 7.61505 8.17623C7.51383 8.271 7.4662 8.38354 7.4662 8.51977C7.4662 8.69746 7.53765 8.83961 7.6865 8.964C7.83535 9.08838 8.05565 9.20685 8.32953 9.31938C8.44861 9.24238 8.54983 9.14761 8.63319 9.03508C8.71654 8.92254 8.75822 8.78631 8.75822 8.63231C8.75822 8.46646 8.69868 8.32431 8.58556 8.21177C8.47243 8.09331 8.29381 8.03407 8.0616 8.03407H8.05565Z" fill="#7E3AF2"/>
<path d="M22.1548 20.1764V6.61847C22.1488 4.58685 20.2316 4.63424 20.2316 4.63424H12.4735L14.0871 17.5703C14.2061 18.6068 13.5572 19.1162 13.5572 19.1162L10.8898 22.1607H20.4817C22.4227 21.7816 22.1548 20.1705 22.1548 20.1705V20.1764ZM20.9044 11.4339H19.9637V16.1902H18.9515V14.0875H18.0763C18.0763 14.0875 18.0763 14.1171 18.0763 14.1349C18.0763 14.585 17.9155 14.9582 17.594 15.2366C17.2784 15.515 16.8319 15.6571 16.2662 15.6571C15.8733 15.6571 15.5041 15.586 15.1707 15.4498L15.1052 15.4202V14.431L15.26 14.508C15.5934 14.6798 15.9209 14.7627 16.2424 14.7627C16.4746 14.7627 16.6771 14.7035 16.8438 14.585C16.9986 14.4725 17.076 14.2948 17.076 14.0401C17.076 13.6255 16.8021 13.4359 16.2067 13.4359H15.7899V12.5297H16.165C16.4151 12.5297 16.5997 12.4764 16.7247 12.3757C16.8438 12.2809 16.8974 12.1447 16.8974 11.9729C16.8974 11.6176 16.7009 11.4517 16.2722 11.4517C15.9864 11.4517 15.7244 11.5169 15.4922 11.6413L15.3374 11.7242V10.735L15.4029 10.7113C15.6827 10.6047 15.9864 10.5455 16.302 10.5455C16.8081 10.5455 17.207 10.6639 17.4868 10.9068C17.7726 11.1496 17.9155 11.4754 17.9155 11.8841C17.9155 12.1921 17.8321 12.4468 17.6773 12.6541C17.5821 12.7726 17.4689 12.8733 17.338 12.9503C17.4868 13.0095 17.6118 13.0924 17.725 13.2049H18.9396V11.4339H18.2072V10.5573H20.8866V11.4339H20.9044Z" fill="#7E3AF2"/>
</svg>
